<svg xmlns="http://www.w3.org/2000/svg" version="1.1" xmlns:xlink="http://www.w3.org/1999/xlink" xmlns:svgjs="http://svgjs.dev/svgjs" width="1000" height="1000" viewBox="0 0 1000 1000"><rect width="1000" height="1000" fill="#000000"></rect><g transform="matrix(0.7,0,0,0.7,149.5757629981349,418.6029936256411)"><svg viewBox="0 0 396 92" data-background-color="#333333" preserveAspectRatio="xMidYMid meet" height="232" width="1000" xmlns="http://www.w3.org/2000/svg" xmlns:xlink="http://www.w3.org/1999/xlink"><g id="tight-bounds" transform="matrix(1,0,0,1,0.23999698888894727,0.11160459631170738)"><svg viewBox="0 0 395.52 91.77679080737657" height="91.77679080737657" width="395.52"><g><svg viewBox="0 0 596.246511273552 138.35353796212803" height="91.77679080737657" width="395.52"><g><rect width="5.724955379839424" height="138.35353796212803" x="410.5067941880613" y="0" fill="#ffffff" opacity="1" stroke-width="0" stroke="transparent" fill-opacity="1" class="rect-o-0" data-fill-palette-color="primary" rx="1%" id="o-0" data-palette-color="#007acc"></rect></g><g transform="matrix(1,0,0,1,0,0.3441630297565297)"><svg viewBox="0 0 395.52 137.66521190261497" height="137.66521190261497" width="395.52"><g id="textblocktransform"><svg viewBox="0 0 395.52 137.66521190261497" height="137.66521190261497" width="395.52" id="textblock"><g><svg viewBox="0 0 395.52 137.66521190261497" height="137.66521190261497" width="395.52"><g transform="matrix(1,0,0,1,0,0)"><svg width="395.52" viewBox="3.700000047683716 -35 221.8000030517578 74.20000457763672" height="137.66521190261497" data-palette-color="#007acc"><svg></svg><svg></svg><g class="wordmark-text-0" data-fill-palette-color="primary" id="text-0"><path xmlns="http://www.w3.org/2000/svg" d="M3.7 0v-34.4h11.05v25.6h17.65v8.8zM53.3-35c5.933 0 10.517 1.517 13.75 4.55 3.233 3.033 4.85 7.45 4.85 13.25v0c0 5.8-1.617 10.217-4.85 13.25-3.233 3.033-7.817 4.55-13.75 4.55v0c-5.933 0-10.507-1.51-13.72-4.53-3.22-3.013-4.83-7.437-4.83-13.27v0c0-5.833 1.61-10.26 4.83-13.28 3.213-3.013 7.787-4.52 13.72-4.52zM53.3-26.75c-2.367 0-4.167 0.717-5.4 2.15-1.233 1.433-1.85 3.367-1.85 5.8v0 3.2c0 2.433 0.617 4.367 1.85 5.8 1.233 1.433 3.033 2.15 5.4 2.15v0c2.367 0 4.177-0.717 5.43-2.15 1.247-1.433 1.87-3.367 1.87-5.8v0-3.2c0-2.433-0.623-4.367-1.87-5.8-1.253-1.433-3.063-2.15-5.43-2.15zM94.95-35c5.933 0 10.517 1.517 13.75 4.55 3.233 3.033 4.85 7.45 4.85 13.25v0c0 5.8-1.617 10.217-4.85 13.25-3.233 3.033-7.817 4.55-13.75 4.55v0c-5.933 0-10.507-1.51-13.72-4.53-3.22-3.013-4.83-7.437-4.83-13.27v0c0-5.833 1.61-10.26 4.83-13.28 3.213-3.013 7.787-4.52 13.72-4.52zM94.95-26.75c-2.367 0-4.167 0.717-5.4 2.15-1.233 1.433-1.85 3.367-1.85 5.8v0 3.2c0 2.433 0.617 4.367 1.85 5.8 1.233 1.433 3.033 2.15 5.4 2.15v0c2.367 0 4.177-0.717 5.43-2.15 1.247-1.433 1.87-3.367 1.87-5.8v0-3.2c0-2.433-0.623-4.367-1.87-5.8-1.253-1.433-3.063-2.15-5.43-2.15zM149.25-25.6h-11.25v25.6h-11.05v-25.6h-11.3v-8.8h33.6z" fill="#ffffff" fill-rule="nonzero" stroke="none" stroke-width="1" stroke-linecap="butt" stroke-linejoin="miter" stroke-miterlimit="10" stroke-dasharray="" stroke-dashoffset="0" font-family="none" font-weight="none" font-size="none" text-anchor="none" style="mix-blend-mode: normal" data-fill-palette-color="primary" opacity="1"></path><path xmlns="http://www.w3.org/2000/svg" d="M3.7 38.6v-34.4h11.05v25.6h17.65v8.8zM37.05 38.6v-34.4h29.75v8.25h-18.7v4.75h16v7.9h-16v5.25h19.05v8.25zM90.45 3.6c3.3 0 6.267 0.5 8.9 1.5 2.633 1 4.727 2.473 6.28 4.42 1.547 1.953 2.32 4.33 2.32 7.13v0h-10.55c0-1.433-0.633-2.593-1.9-3.48-1.267-0.88-2.8-1.32-4.6-1.32v0c-2.6 0-4.567 0.69-5.9 2.07-1.333 1.387-2 3.347-2 5.88v0 3.2c0 2.533 0.667 4.49 2 5.87 1.333 1.387 3.3 2.08 5.9 2.08v0c1.8 0 3.333-0.427 4.6-1.28 1.267-0.847 1.9-1.937 1.9-3.27v0h-7.8v-7h18.35v19.2h-5.7l-1.1-3.4c-3.133 2.667-7.233 4-12.3 4v0c-5.7 0-9.983-1.493-12.85-4.48-2.867-2.98-4.3-7.42-4.3-13.32v0c0-5.833 1.627-10.26 4.88-13.28 3.247-3.013 7.87-4.52 13.87-4.52zM114.8 38.6v-34.4h29.75v8.25h-18.7v4.75h16v7.9h-16v5.25h19.05v8.25zM185.15 38.6h-9.65l-14.45-16.7v16.7h-10.15v-34.4h9.65l14.45 16.95v-16.95h10.15zM207.45 4.2c12.033 0 18.05 5.733 18.05 17.2v0c0 11.467-6.017 17.2-18.05 17.2v0h-14.9v-34.4zM203.6 12.45v17.9h3.65c4.633 0 6.95-2.483 6.95-7.45v0-3c0-4.967-2.317-7.45-6.95-7.45v0z" fill="#ffffff" fill-rule="nonzero" stroke="none" stroke-width="1" stroke-linecap="butt" stroke-linejoin="miter" stroke-miterlimit="10" stroke-dasharray="" stroke-dashoffset="0" font-family="none" font-weight="none" font-size="none" text-anchor="none" style="mix-blend-mode: normal" data-fill-palette-color="primary" opacity="1"></path></g></svg></g></svg></g></svg></g></svg></g><g transform="matrix(1,0,0,1,431.218543755962,0.3441630297565297)"><svg viewBox="0 0 165.02796751758996 137.66521190261497" height="137.66521190261497" width="165.02796751758996"><g><svg xmlns="http://www.w3.org/2000/svg" xmlns:xlink="http://www.w3.org/1999/xlink" version="1.1" x="0" y="0" viewBox="1.496999979019165 8 97.10699462890625 81.00599670410156" enable-background="new 0 0 100 100" xml:space="preserve" height="137.66521190261497" width="165.02796751758996" class="icon-icon-0" data-fill-palette-color="accent" id="icon-0"><g fill="#00a85e" data-fill-palette-color="accent"><polygon fill="#ffffff" points="9.598,89.006 98.604,89.006 98.604,16.101 58.201,16.101 58.201,24.201 90.503,24.201    90.503,80.905 17.698,80.905 17.698,56.604 9.598,56.604  " data-fill-palette-color="accent"></polygon><path fill="#ffffff" d="M1.497 48.503h8.101v-8.101h8.101v8.101h8.101v-8.101h8.101v8.101H42v-8.101h8.101v8.101h8.101V32.302h-8.101V16.101H42V8h-8.101v8.101h-8.101V8h-8.101v8.101H9.598v16.201H1.497V48.503zM17.698 32.302v-8.101h8.101v8.101H17.698zM33.899 32.302v-8.101H42v8.101H33.899z" data-fill-palette-color="accent"></path></g></svg></g></svg></g></svg></g><defs></defs></svg><rect width="395.52" height="91.77679080737657" fill="none" stroke="none" visibility="hidden"></rect></g></svg></g></svg>